<svg width="110" height="47" viewBox="0 0 110 47" fill="none" xmlns="http://www.w3.org/2000/svg">
<path d="M8.27557 18.752C8.27557 17.5673 9.24767 17.1116 10.8577 17.1116C13.1665 17.1116 16.0828 17.8103 18.3916 19.0558V11.9169C15.8702 10.9144 13.3791 10.5195 10.8577 10.5195C4.69092 10.5195 0.589844 13.7396 0.589844 19.1166C0.589844 27.501 12.1336 26.1643 12.1336 29.7794C12.1336 31.1768 10.9185 31.6324 9.2173 31.6324C6.69589 31.6324 3.47579 30.5996 0.924006 29.2022V36.4322C3.74919 37.6474 6.60476 38.1638 9.2173 38.1638C15.536 38.1638 19.8801 35.0348 19.8801 29.5971C19.8497 20.5443 8.27557 22.1544 8.27557 18.752ZM28.8113 4.44381L21.399 6.02349L21.3686 30.3565C21.3686 34.8525 24.7406 38.1638 29.2366 38.1638C31.7277 38.1638 33.5504 37.7081 34.5528 37.1613V30.9945C33.5807 31.3894 28.781 32.7868 28.781 28.2908V17.5065H34.5528V11.0359H28.781L28.8113 4.44381ZM44.0005 13.2839L43.5145 11.0359H36.9527V37.617H44.5473V19.6026C46.3396 17.2635 49.3775 17.6888 50.3192 18.0229V11.0359C49.3471 10.6714 45.7928 10.003 44.0005 13.2839ZM52.1723 11.0359H59.7972V37.617H52.1723V11.0359ZM52.1723 8.72716L59.7972 7.08673V0.919922L52.1723 2.52997V8.72716ZM75.6548 10.5195C72.6777 10.5195 70.7638 11.9169 69.7006 12.889L69.3057 11.0055H62.6224V46.4267L70.217 44.8166L70.2474 36.2196C71.341 37.0094 72.9511 38.1334 75.6244 38.1334C81.0621 38.1334 86.0138 33.7589 86.0138 24.129C85.9834 15.3193 80.971 10.5195 75.6548 10.5195ZM73.8321 31.4502C72.0397 31.4502 70.9765 30.8122 70.2474 30.0224L70.217 18.752C71.0069 17.871 72.1005 17.2635 73.8321 17.2635C76.5965 17.2635 78.5103 20.3621 78.5103 24.3416C78.5103 28.4123 76.6269 31.4502 73.8321 31.4502ZM109.952 24.4328C109.952 16.6559 106.185 10.5195 98.9853 10.5195C91.7553 10.5195 87.3808 16.6559 87.3808 24.372C87.3808 33.5159 92.5451 38.1334 99.9574 38.1334C103.572 38.1334 106.307 37.3132 108.372 36.1588V30.0831C106.307 31.116 103.937 31.754 100.93 31.754C97.9828 31.754 95.3703 30.7211 95.0361 27.1364H109.891C109.891 26.7415 109.952 25.1618 109.952 24.4328ZM94.945 21.5468C94.945 18.1141 97.0411 16.6863 98.9549 16.6863C100.808 16.6863 102.783 18.1141 102.783 21.5468H94.945V21.5468Z" fill="#16263D"/>
</svg>
