<svg width="155" height="52" viewBox="0 0 155 52" fill="none" xmlns="http://www.w3.org/2000/svg">
<path d="M91.111 15.6062H91.0999C85.2762 15.6062 80.564 20.3297 80.564 26.1424C80.564 31.9662 85.2762 36.6897 91.0999 36.6897C96.9236 36.6897 101.647 31.9773 101.647 26.1535C101.647 20.3297 96.9347 15.6062 91.111 15.6062ZM95.5677 30.6214C93.0893 33.0887 89.0883 33.0776 86.621 30.6103C84.1649 28.1429 84.1649 24.1419 86.621 21.6745C89.0883 19.1961 93.0893 19.1961 95.5677 21.6634L95.5788 21.6745C98.0572 24.1419 98.0461 28.1541 95.5677 30.6214Z" fill="#16263D"/>
<path d="M78.4523 32.5322L77.3965 32.4766H67.9053L80.5639 19.8176L80.5084 18.7618C80.4639 17.0613 79.0969 15.6943 77.3965 15.6498L76.3407 15.5942H60.5256L60.5812 16.6501C60.659 18.3283 62.0038 19.6843 63.6931 19.7621L64.7489 19.8176H74.2402L61.5815 32.4766L61.637 33.5325C61.6926 35.2218 63.0596 36.5888 64.7489 36.6444L65.8047 36.7H81.6198L81.5642 35.6441C81.4197 33.8992 80.1861 32.6322 78.4523 32.5322Z" fill="#16263D"/>
<path d="M145.947 15.6056C143.524 15.6056 141.223 16.6503 139.623 18.4619C136.822 15.2832 132.088 14.672 128.576 17.0504C127.765 16.1279 125.92 15.6056 124.864 15.6056V36.7002L125.92 36.6446C127.676 36.5335 128.965 35.2887 129.031 33.5326L129.087 32.4768V25.097L129.143 24.0412C129.143 23.3077 129.332 22.5852 129.665 21.9295C130.821 19.9178 133.399 19.2288 135.422 20.3957C136.055 20.7625 136.589 21.296 136.956 21.9295H136.945C137.289 22.5852 137.467 23.3077 137.467 24.0412L137.522 25.097V32.4768L137.578 33.5326C137.645 35.222 138.99 36.5779 140.679 36.6446L141.735 36.7002V25.097L141.79 24.0412C141.79 23.2965 141.968 22.5741 142.312 21.9184C143.48 19.9067 146.069 19.2176 148.081 20.3957C148.714 20.7625 149.248 21.296 149.614 21.9295C149.948 22.5852 150.126 23.3077 150.126 24.0412L150.181 25.097V32.4768L150.237 33.5326C150.292 35.222 151.648 36.5779 153.338 36.6446L154.393 36.7002V24.0412C154.382 19.3844 150.604 15.6056 145.947 15.6056Z" fill="#16263D"/>
<path d="M120.707 18.6959C118.729 16.7176 116.051 15.6062 113.25 15.6062C110.449 15.6062 107.771 16.7176 105.792 18.6959C101.68 22.8193 101.68 29.4989 105.804 33.6111C109.927 37.7233 116.606 37.7233 120.718 33.6C124.842 29.4878 124.83 22.8082 120.707 18.6959V18.6959ZM117.718 30.6214C115.239 33.0887 111.238 33.0776 108.771 30.6103C106.315 28.1429 106.315 24.1419 108.771 21.6745C111.238 19.1961 115.239 19.1961 117.718 21.6634L117.729 21.6745C120.207 24.1419 120.196 28.1541 117.718 30.6214Z" fill="#16263D"/>
<path d="M0.677246 0.579834H51.8232V51.7271H0.677246V0.579834Z" fill="#16263D"/>
<path d="M9.11279 16.3955H42.8656V35.9008H9.11279V16.3955Z" fill="#F0F8FF"/>
</svg>
