<svg width="153" height="44" viewBox="0 0 153 44" fill="none" xmlns="http://www.w3.org/2000/svg">
<path d="M152.724 39.5874C152.724 41.9851 150.787 43.9286 148.397 43.9286H114.135C111.745 43.9286 109.809 41.9851 109.809 39.5874V4.84518C109.809 2.44763 111.745 0.503906 114.135 0.503906H148.397C150.787 0.503906 152.724 2.44763 152.724 4.84518V39.5874Z" fill="black"/>
<path d="M0 9.25977H5.7738V30.0009H15.954V34.863H0V9.25977Z" fill="black"/>
<path d="M23.9675 11.1216C23.9675 12.7166 22.79 14.0084 20.8528 14.0084C19.0294 14.0084 17.8518 12.7166 17.8518 11.1216C17.8518 9.48817 19.0677 8.23462 20.929 8.23462C22.79 8.23462 23.9297 9.48817 23.9675 11.1216ZM18.0038 34.863V16.2875H23.7779V34.863H18.0038Z" fill="black"/>
<path d="M27.2328 22.2133C27.2328 19.8964 27.1569 17.9593 27.0808 16.2874H32.0949L32.3612 18.8707H32.4753C33.2348 17.6549 35.0961 15.8696 38.2106 15.8696C42.0097 15.8696 44.8588 18.415 44.8588 23.8848V34.863H39.0845V24.5685C39.0845 22.1755 38.2491 20.5423 36.1599 20.5423C34.5641 20.5423 33.6147 21.6439 33.1966 22.7072C33.0449 23.0871 33.0072 23.6188 33.0072 24.151V34.863H27.2328V22.2133Z" fill="black"/>
<path d="M54.088 24.1128H54.164C54.5821 23.3149 55.0379 22.5554 55.4936 21.8717L59.2539 16.2874H66.2054L59.5579 23.8087L67.1548 34.863H60.0518L55.531 27.2273L54.088 29.0508V34.863H48.3137V7.89258H54.088V24.1128Z" fill="black"/>
<path d="M71.6369 27.4176C71.7889 29.8106 74.1816 30.9504 76.8788 30.9504C78.8542 30.9504 80.4494 30.6843 82.0075 30.1526L82.7668 34.0652C80.8673 34.863 78.5505 35.2429 76.0434 35.2429C69.7374 35.2429 66.1287 31.5963 66.1287 25.7841C66.1287 21.074 69.054 15.8696 75.511 15.8696C81.5132 15.8696 83.7924 20.5423 83.7924 25.1384C83.7924 26.1259 83.678 26.9995 83.6022 27.4176H71.6369ZM78.4362 23.4668C78.4362 22.0615 77.8286 19.7061 75.1696 19.7061C72.7384 19.7061 71.7505 21.948 71.5987 23.4668H78.4362Z" fill="black"/>
<path d="M104.076 7.89258V29.3171C104.076 31.4061 104.152 33.6096 104.228 34.863H99.0988L98.8712 32.1659H98.7577C97.6181 34.217 95.3386 35.2813 92.9456 35.2813C88.5395 35.2813 85.0064 31.5204 85.0064 25.7462C84.9688 19.4782 88.8815 15.8319 93.3253 15.8319C95.6424 15.8319 97.3899 16.6674 98.2254 17.9209H98.3014V7.89258H104.076ZM98.3014 24.1509C98.3014 23.8466 98.3014 23.429 98.2254 23.087C97.8839 21.568 96.6306 20.2762 94.8452 20.2762C92.1856 20.2762 90.856 22.6313 90.856 25.5564C90.856 28.7088 92.4141 30.6842 94.807 30.6842C96.4783 30.6842 97.8457 29.545 98.1876 27.9118C98.2639 27.4937 98.3014 27.0382 98.3014 26.582V24.1509Z" fill="black"/>
<path d="M123.769 11.1214C123.769 12.7164 122.591 14.0081 120.654 14.0081C118.831 14.0081 117.653 12.7164 117.653 11.1214C117.653 9.48793 118.869 8.23438 120.73 8.23438C122.591 8.23438 123.731 9.48793 123.769 11.1214ZM117.805 34.8627V16.2873H123.579V34.8627H117.805Z" fill="#F0F8FF"/>
<path d="M127.035 22.213C127.035 19.8961 126.959 17.9591 126.883 16.2872H131.897L132.163 18.8704H132.277C133.037 17.6546 134.898 15.8694 138.013 15.8694C141.812 15.8694 144.66 18.4147 144.66 23.8846V34.8627H138.887V24.5683C138.887 22.1753 138.05 20.5421 135.961 20.5421C134.366 20.5421 133.417 21.6436 132.999 22.7069C132.847 23.0869 132.808 23.6186 132.808 24.1507V34.8627H127.035V22.213Z" fill="#F0F8FF"/>
</svg>
