<svg width="133" height="44" viewBox="0 0 133 44" fill="none" xmlns="http://www.w3.org/2000/svg">
<path d="M32.5602 15.4605H17.1064V20.0462H28.0664C27.5252 26.4771 22.175 29.2192 17.125 29.2192C10.6644 29.2192 5.02626 24.1357 5.02626 17.0103C5.02626 10.0694 10.4008 4.72354 17.1394 4.72354C22.3385 4.72354 25.4016 8.03809 25.4016 8.03809L28.6128 4.71329C28.6128 4.71329 24.4915 0.125 16.9754 0.125C7.40421 0.125 0 8.20312 0 16.9284C0 25.4787 6.96465 33.8153 17.2194 33.8153C26.2379 33.8153 32.8399 27.6368 32.8399 18.501C32.8399 16.5733 32.5597 15.4594 32.5597 15.4594L32.5602 15.4605Z" fill="#16263D"/>
<path d="M45.2192 12.1394C38.8779 12.1394 34.3335 17.0972 34.3335 22.879C34.3335 28.7462 38.7416 33.7958 45.2935 33.7958C51.2247 33.7958 56.0844 29.2622 56.0844 23.0048C56.0844 15.8331 50.4317 12.1394 45.2192 12.1394V12.1394ZM45.2821 16.3928C48.4004 16.3928 51.3553 18.9138 51.3553 22.9764C51.3553 26.9528 48.4129 29.5455 45.2677 29.5455C41.812 29.5455 39.0858 26.7779 39.0858 22.9449C39.0858 19.1939 41.7785 16.3928 45.2821 16.3928V16.3928Z" fill="#16263D"/>
<path d="M68.893 12.1394C62.5522 12.1394 58.0078 17.0972 58.0078 22.879C58.0078 28.7462 62.4155 33.7958 68.9678 33.7958C74.8992 33.7958 79.7582 29.2622 79.7582 23.0048C79.7582 15.8331 74.1061 12.1394 68.893 12.1394V12.1394ZM68.9565 16.3928C72.0744 16.3928 75.0297 18.9138 75.0297 22.9764C75.0297 26.9528 72.0872 29.5455 68.942 29.5455C65.4864 29.5455 62.7601 26.7779 62.7601 22.9449C62.7601 19.1939 65.4523 16.3928 68.9565 16.3928V16.3928Z" fill="#16263D"/>
<path d="M92.1133 12.1519C86.2931 12.1519 81.7183 17.2498 81.7183 22.9718C81.7183 29.4892 87.022 33.8113 92.0132 33.8113C95.0991 33.8113 96.7403 32.5865 97.9517 31.1799V33.3155C97.9517 37.0509 95.6837 39.288 92.2599 39.288C88.9522 39.288 87.2935 36.8291 86.7167 35.4334L82.5551 37.1732C84.0317 40.2948 87.0035 43.5504 92.2939 43.5504C98.0812 43.5504 102.491 39.9051 102.491 32.2604V12.803H97.9517V14.6371C96.5556 13.1331 94.6466 12.1523 92.1133 12.1523V12.1519ZM92.5349 16.3965C95.3885 16.3965 98.3185 18.8333 98.3185 22.9945C98.3185 27.2242 95.3947 29.5552 92.4714 29.5552C89.3686 29.5552 86.4814 27.0353 86.4814 23.0347C86.4814 18.8777 89.48 16.3965 92.5349 16.3965V16.3965Z" fill="#16263D"/>
<path d="M122.677 12.125C117.187 12.125 112.577 16.4936 112.577 22.9387C112.577 29.7596 117.715 33.8047 123.205 33.8047C127.786 33.8047 130.598 31.2982 132.276 29.0522L128.533 26.5618C127.562 28.0694 125.937 29.5424 123.228 29.5424C120.184 29.5424 118.784 27.8753 117.917 26.261L132.436 20.2363L131.682 18.4707C130.28 15.0132 127.007 12.1261 122.678 12.1261L122.677 12.125ZM122.866 16.2898C124.845 16.2898 126.269 17.3412 126.873 18.6028L117.177 22.6555C116.759 19.5176 119.732 16.2898 122.866 16.2898V16.2898Z" fill="#16263D"/>
<path d="M105.655 33.1617H110.425V1.24512H105.655V33.1617Z" fill="#16263D"/>
</svg>
